# xmcd CD database file
#
# Track frame offsets:
#	150
#	15500
#	33825
#	52250
#	70625
#
# Disc length: 1177 seconds
#
# Revision: 0
# Processed by: cddbd v1.4b42PL1 Copyright (c) Steve Scherf et al.
# Submitted via: Feurio! 1.62 - http://www.feurio.com
#
DISCID=37049705
DTITLE=Max A Million - Sexual Healing
DYEAR=1900
DGENRE=
TTITLE0=Sexual Healing (Radio Edit)
TTITLE1=Sexual Healing (Album Mix)
TTITLE2=Sexual Healing (Instrumental)
TTITLE3=Sexual Healing (Urban Mix)
TTITLE4=Sexual Healing (Acappella)
EXTD=
EXTT0=
EXTT1=
EXTT2=
EXTT3=
EXTT4=
PLAYORDER=
